<svg id="Слой_1" data-name="Слой 1" xmlns="http://www.w3.org/2000/svg" xmlns:xlink="http://www.w3.org/1999/xlink" viewBox="0 0 606.6 892.9"><defs><style>.cls-1{fill:none;}.cls-2{clip-path:url(#clip-path);}.cls-3{fill:#f8e7cc;}.cls-4{fill:#fff;}</style><clipPath id="clip-path"><rect class="cls-1" y="0.1" width="606.6" height="892.8"/></clipPath></defs><title>art-nuvo-fon</title><g class="cls-2"><polygon class="cls-3" points="0 0 0 892.9 606.6 892.9 606.6 0 0 0"/></g><path class="cls-4" d="M581.3,443.7V68.3c0-16.5-1.3-18.4-5.3-22.1,13.8-2.4,11.6-15-2-16.1-22.3-1.8-35-.1-69.6,5.3-18.7,3-27.6,5.9-30.5-.5H430.8c.3,6.3,1.5.7,16,5.5,5.8,1.7,10,3.8,16.3,5,12.7,2.4,26-3.2,38.5-5,35.5-5.2,55.2-7.3,69-5.1,11.9,1.9,4.8,8.9.7,7.5-2.3-.8-8.4-2.6-11.1-3.2-5.6-1.1-11.8-.2-13.8,4.5-1.3,2.9-.2,7,3.3,10,7.2,6,18.9,10.7,23.5,18.6,3.8,6.4,3.7,16.5,3.7,28.2V442.2c-.9.7-1.9,1.8-3.2,3-3,2.6-3,1.9-1.2,4.1,1.7,2,.3.4,4.4,5.5V803.6c-1.3,6-10.1-4.7-16.7-.2-3.4,2.3-5.2,5.9-2.9,12.9,4.5,13.5,30.3,25.5,19.4,39-21,24.5-73.9-53.5-124.7-10-3.4,2.9-7.4,7.1-14,7.5-3.6.2-7.4.4-11.3.3l-16.4-.2H196.2l-16.4.2c-3.9,0-7.7-.1-11.3-.3-6.6-.4-10.5-4.5-14-7.5-50.8-43.5-104.8,34.3-124.7,9.8-10.9-13.5,14.9-25.2,19.4-38.7,2.3-7,.6-10.5-2.9-12.9-6.6-4.5-15.3,6.2-16.7.2V454.6c4-5.1,2.7-3.5,4.4-5.5,1.9-2.2,1.8-1.5-1.2-4.1-1.3-1.1-2.3-2.3-3.2-3V100.8c0-11.6-.1-21.8,3.7-28.2,4.6-8,16.2-12.7,23.5-18.6,3.6-3,4.6-7.1,3.3-10-2-4.7-8.2-5.6-13.8-4.5a111.5,111.5,0,0,0-11.1,3.2c-4.1,1.4-11.2-5.6.7-7.5,13.8-2.2,33.5-.1,69,5.1,12.5,1.8,25.8,7.4,38.5,5,6.3-1.2,10.4-3.4,16.3-5,14.4-4.2,15.5.8,16-5.5H132.6c-2.8,6.3-11.8,3.4-30.5.5C67.5,29.8,54.8,28.1,32.5,30,19,31.1,16.9,43.7,30.6,46.1c-4.1,3.8-5.4,5.7-5.4,22.1V443.7c-3.8,4.9-2.5,3.3-4.2,5.3-1.9,2.2-1.8,1.5,1.2,4.1,1.2,1.1,2.2,2.1,3,2.8V795.7c0,6.7-.7,18.7,6.4,17.3,4-.7,10.7-13,14.6-5s-29.8,26-21.5,46c11.8,27,79.5-12,98.7-3.4,4.4,2,4.2,7.1-1.6,7-6.2-.1-17.9-7.2-25.5-2.3a3.49,3.49,0,0,0-1.1,4.9c.1.2.3.4.4.6a3.3,3.3,0,0,0,5.5-3c2.8-2,9.8.4,17.6,2.9,20.7,6.6,21.5-8.2,14.8-13.7-11.5-9.6-38.2.2-48.2,3.6-6.2,2.1-21.1,8-28.3,8.4,7.2-3.2,15.9-7.5,22.7-10.6,8.7-4,14.3-5.7,23.9-8.3,8.8-2.4,19.7-3.6,28.7-.2,13.5,5.1,11.9,17.8,13.6,20,3.7,4.6,8.2,1.2,12.7-.5s8.3-1.2,15.4-1.3l22-.5H410.2l23.2.5c7.1.1,9.6-.3,14.2,1.3s9,5,12.7.5c1.8-2.2.1-14.9,13.6-20,9-3.4,19.9-2.2,28.7.2a140.33,140.33,0,0,1,23.9,8.3c6.8,3.1,15.5,7.4,22.7,10.6-7.2-.3-22.1-6.2-28.3-8.4-10-3.4-36.6-13.2-48.1-3.6-6.7,5.5-5.9,20.3,14.8,13.7,7.8-2.5,14.8-4.9,17.6-2.9a3.23,3.23,0,0,0,2.5,3.9,3.06,3.06,0,0,0,2.9-.9,3.62,3.62,0,0,0-.1-5.1,2.09,2.09,0,0,0-.6-.4c-7.7-5-19.3,2.2-25.5,2.3-5.8.1-6-5-1.6-7,19.1-8.7,86.9,30.3,98.7,3.3,8.3-20-25.1-36.7-21.6-45,3.7-8.8,10.8,3.4,14.8,4.2,7.1,1.3,6.4-10.6,6.4-17.3V455.9c.8-.7,1.8-1.8,3-2.8,3-2.6,3-1.9,1.2-4.1-1.5-2-.2-.4-4-5.3ZM129.2,42.2c7.4-.2,11.2-2.3,12.7-4.7,4.7,0,8.4-.1,13.1,0-8.8,3.4-9.4,7.8-25.8,4.7ZM29.8,69.9c.2-8.2,1.2-13,4.1-17.1,8-11.1,32.7-10.6,10.5,4.4C34.8,63.7,33.7,66,29.8,69.9Zm130,784.6c-2.2,1.4-4.9,2-7.3.7-2.8-1.6-1.9-4.6-4.8-9.4C150.5,848.5,155.3,853.1,159.8,854.5Zm299.1-8.7c-2.8,4.7-1.9,7.8-4.8,9.4-2.4,1.3-5.1.7-7.3-.7C451.3,853.1,456.2,848.5,458.9,845.8ZM477.4,42.2c-16.4,3.1-16.9-1.3-25.8-4.7h13.1c1.4,2.4,5.3,4.5,12.7,4.7Zm99.4,27.7c-3.9-3.9-5-6.2-14.6-12.7-22.3-15,2.4-15.5,10.4-4.4C575.6,56.9,576.6,61.8,576.8,69.9Z"/></svg>