<svg id="Слой_1" data-name="Слой 1" xmlns="http://www.w3.org/2000/svg" viewBox="0 0 99.9 39.5"><defs><style>.cls-1{fill:#fff;}</style></defs><title>Logo-whiteaoduvan</title><path class="cls-1" d="M25.6,3.5a5.94,5.94,0,0,0-1.4-2.4,3.22,3.22,0,0,0-2.6-1,3.67,3.67,0,0,0-2.5.7,8.91,8.91,0,0,0-1.5,1.9,7.21,7.21,0,0,0-.7,2.4,20.89,20.89,0,0,0-.2,2.5c0,3.3-.1,6.5-.2,9.7s-.2,6.5-.2,9.7v3.4c0,.9.1,1.9.2,2.9a14.37,14.37,0,0,0,.6,2.9,5.38,5.38,0,0,0,1.5,2.2,4,4,0,0,0,2.8.8,4,4,0,0,0,2.2-.5,3,3,0,0,0,1.3-1.4,6.7,6.7,0,0,0,.6-2,17.63,17.63,0,0,0,.1-2.3c0-4,.1-8,.2-11.9s.2-7.9.2-11.9c0-.8,0-1.7-.1-2.8A7.49,7.49,0,0,0,25.6,3.5ZM24,10.2c0,3.8,0,7.7-.2,11.5s-.2,7.6-.2,11.5a5.2,5.2,0,0,1-.4,2.1,2,2,0,0,1-1.9.8,2.22,2.22,0,0,1-2-.8,5.2,5.2,0,0,1-.4-2.1V27.6c0-2.9,0-5.8.1-8.6s.1-5.7.1-8.6V8.6a8.49,8.49,0,0,1,.3-2.3,6.93,6.93,0,0,1,.8-2,1.74,1.74,0,0,1,1.6-.8,1.42,1.42,0,0,1,1.4.9,6.7,6.7,0,0,1,.6,2,5.88,5.88,0,0,1,.2,2Z"/><path class="cls-1" d="M12.4.1H5.8a3.37,3.37,0,0,0-1,.1A.72.72,0,0,0,5,.7a.63.63,0,0,1,.1.4,19.34,19.34,0,0,1-.5,3.3c-.3,1.4-.7,3-1.2,4.6s-.9,3.2-1.3,4.7-.8,2.7-1,3.5S.6,18.8.4,19.6A7.32,7.32,0,0,0,0,22.1v1.7c0,.9.1,1.9.1,3.2s.1,2.5.2,3.8.2,2.6.4,3.8a15.34,15.34,0,0,0,.6,3c.2.8.5,1.2.9,1.3.1.1.2.1.4.1H4.1a3.74,3.74,0,0,0,1-.1,7.75,7.75,0,0,1-1.2-2.8,23.13,23.13,0,0,1-.7-3.6c-.2-1.3-.4-2.5-.5-3.7s-.1-2.2-.1-3c0-1.4.1-2.9.2-4.3A38.83,38.83,0,0,1,3.6,17a38.74,38.74,0,0,1,1.2-4.5A28.75,28.75,0,0,1,6.3,8.4h4.3V39.3H13l.1-37.2a1.42,1.42,0,0,1,.2-.7,3.09,3.09,0,0,0,.2-.9.37.37,0,0,0-.1-.3ZM10.8,4.9a1.42,1.42,0,0,1-.2.6.71.71,0,0,1-.6.3H7.8a1.23,1.23,0,0,1-.6-.1A.35.35,0,0,1,7,5.6a.74.74,0,0,1,.1-.5,3.24,3.24,0,0,1,.2-.8,2.41,2.41,0,0,0,.2-.8c.1-.2.1-.4.2-.6l1.2-.2c.4,0,.8-.1,1.2-.1h.2a.37.37,0,0,1,.3.1,1.4,1.4,0,0,1,.1.9A7.05,7.05,0,0,1,10.8,4.9Z"/><path class="cls-1" d="M99.1.2c-.3,0-.6-.1-.9-.1a1.66,1.66,0,0,0-.7.1c-.1.3-.1.5-.2.8,0,.5-.1,1-.1,1.7s-.1,1.4-.1,2.1V10a7,7,0,0,0-1.8-2.4,4,4,0,0,0-2.8-1,.27.27,0,0,1-.3-.24v-5a1.66,1.66,0,0,0-.1-.7,1.12,1.12,0,0,0-.8-.3H89.9a.72.72,0,0,0-.5.2c-.1,0-.1.3-.1.8V6c0,5.3,0,10.6-.1,15.8s-.1,10.5-.1,15.9a.74.74,0,0,0,.5.7,3.09,3.09,0,0,0,.9.2h.8c.2,0,.3,0,.4-.1a.22.22,0,0,0,.2-.2V16.2c0-2,0-3.7.1-5a7.42,7.42,0,0,1,.2-2.1h.1a1,1,0,0,1,.6.2l.6.3a7.17,7.17,0,0,1,2.7,3.7,14.12,14.12,0,0,1,.8,4.5c0,3.2-.1,6.4-.2,9.5s-.2,6.3-.2,9.5v1.3a2.41,2.41,0,0,0,.2.8.89.89,0,0,0,.7.3,6.56,6.56,0,0,0,1.4.1h.5c.2,0,.2-.1.2-.3V14.5c.1-2.1.1-4.1.2-6.1s.1-4.1.1-6.1V.5A1.12,1.12,0,0,0,99.1.2Z"/><path class="cls-1" d="M56.3.2a3.75,3.75,0,0,0-1.1.2,2.62,2.62,0,0,0-.5.6,3.07,3.07,0,0,0-.1,1V19.7c0,5.5-.1,10.9-.2,16.5-.4.1-.8.1-1.2.2a5.15,5.15,0,0,1-1.3.1,2.09,2.09,0,0,1-1.6-.8,6.92,6.92,0,0,1-1-1.9,18.42,18.42,0,0,1-.5-2.2,12.07,12.07,0,0,1-.1-1.8,26.86,26.86,0,0,1,.4-4.9c.2-1.6.5-3.3.8-4.9s.5-3.3.8-4.9a40.16,40.16,0,0,0,.3-4.9V5a13.43,13.43,0,0,0-.1-2.1c-.1-.6-.1-1.2-.2-1.6s-.1-.7-.2-.7A4.13,4.13,0,0,0,49,.2H47.5c.3,1.4.5,2.9.7,4.3a31.68,31.68,0,0,1,.2,4.4A29.07,29.07,0,0,1,48,14c-.3,1.8-.6,3.6-1,5.4s-.7,3.6-1,5.4a28.92,28.92,0,0,0-.5,5,12.56,12.56,0,0,0,.4,3.4,8,8,0,0,0,1.2,3,5.81,5.81,0,0,0,2.3,2.1,7.2,7.2,0,0,0,3.5.8,7.42,7.42,0,0,0,2.1-.2,14.78,14.78,0,0,1,2.1-.2c.1-6.3.1-12.6.2-18.8s.1-12.5.1-18.8a1.09,1.09,0,0,0-.2-.8A1.4,1.4,0,0,0,56.3.2Z"/><path class="cls-1" d="M41.3,16.1a54.09,54.09,0,0,0-1.7-7,50.66,50.66,0,0,0-2.5-6.5,1.42,1.42,0,0,0-.2-.6,6,6,0,0,1-.4-.8c-.1-.3-.4-.4-.5-.6a.78.78,0,0,0-.4-.4A4.07,4.07,0,0,0,34.5.1H32.1l-.8.1c-.2,0-.4.1-.6.1a.63.63,0,0,0-.1.4v.4a54.29,54.29,0,0,0-.2,5.7V28.4c0,1.6,0,3.2-.1,4.7a20.48,20.48,0,0,1-.1,2.6c0,.9-.1,1.8-.1,2.6a1.12,1.12,0,0,0,.3.8.89.89,0,0,0,.7.3h1.8c1,0,2,0,3-.1s2-.1,3-.1A2,2,0,0,0,40.7,38a11.07,11.07,0,0,0,1.2-2.7c.3-1,.5-2,.7-3a16.21,16.21,0,0,0,.2-2.2q0-3.3-.3-6.9C42,20.9,41.7,18.5,41.3,16.1Zm-1.8,17a4.86,4.86,0,0,1-.6,1.7,2.79,2.79,0,0,1-1.3,1.1,4,4,0,0,1-2.1.4,7.57,7.57,0,0,1-1.5-.1c-.5,0-1-.1-1.5-.1V3.5a1.42,1.42,0,0,1,.2-.7.71.71,0,0,1,.6-.3c.2,0,.3.1.5.1s.3.2.4.3a1,1,0,0,1,.4.5,3,3,0,0,1,.4.8c.1.3.3.6.4.9l.3.6a41,41,0,0,1,1.9,5.9c.5,2.1.9,4.3,1.2,6.4s.5,4.4.6,6.5.2,4.2.2,6.2a9.19,9.19,0,0,1-.1,2.4Z"/><path class="cls-1" d="M70.2.4A3.75,3.75,0,0,0,69.1.2a.52.52,0,0,0-.4.2c-.1.2-.1.3-.2.5v.9c-.1,1.5-.3,2.9-.5,4.3s-.4,2.8-.6,4.3c-.4,2.5-.7,5-1,7.4s-.7,5-1,7.4a20.27,20.27,0,0,1-.3-2.7c-.1-1.4-.3-2.9-.6-4.7s-.5-3.7-.7-5.6-.5-3.8-.7-5.4-.4-3-.5-4.1A9.93,9.93,0,0,0,62.3,1a1,1,0,0,0-.6-.5H60c0,.5.1,1.5.2,2.8s.3,3,.5,4.9.4,4,.6,6.2.4,4.5.6,6.8.4,4.5.6,6.6.4,4,.6,5.7.3,3,.5,4a8.65,8.65,0,0,0,.2,1.6.37.37,0,0,0,.3.1h.3a5.68,5.68,0,0,0,1.3-.2,44.34,44.34,0,0,1,.5-6.3c.3-2.2.6-4.4.9-6.4.5-4.3,1.1-8.5,1.7-12.7S70.4,5.4,71,1.1A1.13,1.13,0,0,0,70.2.4Z"/><path class="cls-1" d="M85.2.1H78.5a3.37,3.37,0,0,0-1,.1c.1.2.2.3.2.4a.63.63,0,0,1,.1.4,19.34,19.34,0,0,1-.5,3.3c-.3,1.4-.7,3-1.2,4.6s-.9,3.2-1.3,4.7-.8,2.7-1,3.5a22.66,22.66,0,0,1-.7,2.4,11.05,11.05,0,0,0-.4,2.5v1.7c0,.9,0,1.9.1,3.2s.1,2.5.2,3.8.2,2.6.4,3.8a15.34,15.34,0,0,0,.6,3c.2.8.5,1.2.9,1.3a.87.87,0,0,0,.5.1h1.5a3.74,3.74,0,0,0,1-.1A9.92,9.92,0,0,1,76.7,36a23.13,23.13,0,0,1-.7-3.6c-.2-1.2-.3-2.4-.4-3.6s-.1-2.2-.1-3c0-1.4.1-2.9.2-4.3a38,38,0,0,1,.7-4.5,38.74,38.74,0,0,1,1.2-4.5c.4-1.4.9-2.8,1.4-4.2h4.3V39.2h2.5L85.9,2a1.42,1.42,0,0,1,.2-.7,1.5,1.5,0,0,0,.2-.9c0-.1-.1-.2-.1-.3ZM83.6,4.9a1.42,1.42,0,0,1-.2.6.71.71,0,0,1-.6.3H80.6a1.23,1.23,0,0,1-.6-.1c-.2,0-.2-.1-.2-.2a.74.74,0,0,1,.1-.5,3.24,3.24,0,0,1,.2-.8,2.41,2.41,0,0,0,.2-.8c.1-.2.1-.4.2-.6l1.2-.2c.4,0,.8-.1,1.2-.1h.2a.37.37,0,0,1,.3.1,3.09,3.09,0,0,1,.2.9Z"/></svg>